<svg version="1.1" id="Capa_1" xmlns="http://www.w3.org/2000/svg" xmlns:xlink="http://www.w3.org/1999/xlink" x="0px" y="0px" width="50px" height="50px" viewBox="0 0 355.555 355.555" xmlSpace="preserve">
    <g>
        <g>
        <path d="M107.412,266.641c-15.434,0-27.941,12.502-27.941,27.938s12.508,27.938,27.941,27.938
            c15.438,0,27.942-12.502,27.942-27.938S122.85,266.641,107.412,266.641z M107.412,306.724c-6.71,0-12.146-5.437-12.146-12.146
            c0-6.713,5.436-12.146,12.146-12.146c6.709,0,12.149,5.434,12.149,12.146C119.561,301.287,114.121,306.724,107.412,306.724z"></path>
        <path d="M232.203,266.641c-15.432,0-27.939,12.502-27.939,27.938s12.508,27.938,27.939,27.938
            c15.439,0,27.943-12.502,27.943-27.938S247.643,266.641,232.203,266.641z M232.203,306.724c-6.709,0-12.145-5.437-12.145-12.146
            c0-6.713,5.436-12.146,12.145-12.146c6.711,0,12.15,5.434,12.15,12.146C244.354,301.287,238.914,306.724,232.203,306.724z"></path>
        <path d="M284.574,216.828c-12.17-3.164-22.572-12.893-27.352-22.123l-16.838-32.348c-4.779-9.228-17.191-16.779-27.585-16.779
            h-98.77c-10.393,0-21.631,8.051-24.974,17.891l-10.313,30.354c-1.016,4.014-7.703,24.037-21.657,24.037
            c-10.393,0-21.803,13.694-21.803,24.086v35.902c0,10.393,8.502,18.896,18.896,18.896h19.44c-0.046-0.717-0.076-1.438-0.076-2.166
            c0-18.674,15.192-33.864,33.867-33.864c18.676,0,33.87,15.19,33.87,33.864c0,0.728-0.031,1.449-0.077,2.166h57.208
            c-0.045-0.717-0.076-1.438-0.076-2.166c0-18.674,15.193-33.864,33.867-33.864c18.676,0,33.871,15.19,33.871,33.864
            c0,0.728-0.031,1.449-0.078,2.166h35.377c10.395,0,18.896-8.504,18.896-18.896v-28.16
            C320.27,219.453,294.676,219.453,284.574,216.828z M139.654,212.318H85.169c2.99-4.656,4.616-9.729,5.046-11.424l8.725-25.679
            c2.827-8.324,12.335-15.135,21.127-15.135h19.588L139.654,212.318L139.654,212.318z M158.436,212.318v-52.238h45.187
            c8.792,0,19.292,6.388,23.336,14.194l14.244,27.368c1.902,3.674,4.869,7.436,8.541,10.674h-91.308V212.318z"></path>
        <path d="M332.77,33.039H22.784C10.221,33.039,0,43.26,0,55.823v229.692c0,3.86,3.141,7,7,7c3.86,0,7-3.14,7-7V55.823
            c0-4.844,3.94-8.784,8.784-8.784H332.77c4.844,0,8.785,3.94,8.785,8.784v229.692c0,3.86,3.141,7,7,7c3.857,0,7-3.14,7-7V55.823
            C355.555,43.26,345.334,33.039,332.77,33.039z"></path>
        <path d="M264.926,102.794c0,2.762,2.236,5,5,5c2.762,0,5-2.238,5-5v-10c0-2.761-2.238-5-5-5c-2.764,0-5,2.239-5,5V102.794z"></path>
        <path d="M264.926,132.794c0,2.762,2.236,5,5,5c2.762,0,5-2.238,5-5v-10c0-2.761-2.238-5-5-5c-2.764,0-5,2.239-5,5V132.794z"></path>
        <path d="M269.926,77.794c2.762,0,5-2.238,5-5v-10c0-2.761-2.238-5-5-5c-2.764,0-5,2.239-5,5v10
            C264.926,75.556,267.164,77.794,269.926,77.794z"></path>
        <path d="M264.926,162.794c0,2.762,2.236,5,5,5c2.762,0,5-2.238,5-5v-10c0-2.761-2.238-5-5-5c-2.764,0-5,2.239-5,5V162.794z"></path>
        <path d="M316,177.794c-2.76,0-5,2.239-5,5v10c0,2.762,2.24,5,5,5c2.764,0,5-2.238,5-5v-10
            C321,180.033,318.762,177.794,316,177.794z"></path>
        <path d="M316,87.794c-2.76,0-5,2.239-5,5v10c0,2.762,2.24,5,5,5c2.764,0,5-2.238,5-5v-10C321,90.033,318.762,87.794,316,87.794z"></path>
        <path d="M316,57.794c-2.76,0-5,2.239-5,5v10c0,2.762,2.24,5,5,5c2.764,0,5-2.238,5-5v-10C321,60.033,318.762,57.794,316,57.794z"></path>
        <path d="M316,147.794c-2.76,0-5,2.239-5,5v10c0,2.762,2.24,5,5,5c2.764,0,5-2.238,5-5v-10
            C321,150.033,318.762,147.794,316,147.794z"></path>
        <path d="M316,117.794c-2.76,0-5,2.239-5,5v10c0,2.762,2.24,5,5,5c2.764,0,5-2.238,5-5v-10
            C321,120.033,318.762,117.794,316,117.794z"></path>
        <path d="M85.629,77.794c2.761,0,5-2.238,5-5v-10c0-2.761-2.239-5-5-5c-2.763,0-5,2.239-5,5v10
            C80.629,75.556,82.866,77.794,85.629,77.794z"></path>
        <path d="M80.629,102.794c0,2.762,2.237,5,5,5c2.761,0,5-2.238,5-5v-10c0-2.761-2.239-5-5-5c-2.763,0-5,2.239-5,5V102.794z"></path>
        <path d="M80.629,132.794c0,2.762,2.237,5,5,5c2.761,0,5-2.238,5-5v-10c0-2.761-2.239-5-5-5c-2.763,0-5,2.239-5,5V132.794z"></path>
        <path d="M218.852,102.794c0,2.762,2.237,5,5,5c2.762,0,5-2.238,5-5v-10c0-2.761-2.238-5-5-5c-2.763,0-5,2.239-5,5V102.794z"></path>
        <path d="M218.852,129.584c0,2.761,2.237,5,5,5c2.762,0,5-2.239,5-5v-6.79c0-2.761-2.238-5-5-5c-2.763,0-5,2.239-5,5V129.584z"></path>
        <path d="M223.852,77.794c2.762,0,5-2.238,5-5v-10c0-2.761-2.238-5-5-5c-2.763,0-5,2.239-5,5v10
            C218.852,75.556,221.09,77.794,223.852,77.794z"></path>
        <path d="M177.777,77.794c2.762,0,5-2.238,5-5v-10c0-2.761-2.238-5-5-5s-5,2.239-5,5v10
            C172.777,75.556,175.015,77.794,177.777,77.794z"></path>
        <path d="M172.777,129.584c0,2.761,2.238,5,5,5s5-2.239,5-5v-6.79c0-2.761-2.238-5-5-5s-5,2.239-5,5V129.584z"></path>
        <path d="M172.777,102.794c0,2.762,2.238,5,5,5s5-2.238,5-5v-10c0-2.761-2.238-5-5-5s-5,2.239-5,5V102.794z"></path>
        <path d="M131.702,77.794c2.763,0,5-2.238,5-5v-10c0-2.761-2.237-5-5-5c-2.762,0-5,2.239-5,5v10
            C126.702,75.556,128.94,77.794,131.702,77.794z"></path>
        <path d="M126.702,102.794c0,2.762,2.238,5,5,5c2.763,0,5-2.238,5-5v-10c0-2.761-2.237-5-5-5c-2.762,0-5,2.239-5,5V102.794z"></path>
        <path d="M126.702,129.584c0,2.761,2.238,5,5,5c2.763,0,5-2.239,5-5v-6.79c0-2.761-2.237-5-5-5c-2.762,0-5,2.239-5,5V129.584z"></path>
        <path d="M39.552,77.794c2.762,0,5-2.238,5-5v-10c0-2.761-2.238-5-5-5c-2.761,0-5,2.239-5,5v10
            C34.552,75.556,36.792,77.794,39.552,77.794z"></path>
        <path d="M34.552,102.794c0,2.762,2.239,5,5,5c2.762,0,5-2.238,5-5v-10c0-2.761-2.238-5-5-5c-2.761,0-5,2.239-5,5V102.794z"></path>
        <path d="M34.552,132.794c0,2.762,2.239,5,5,5c2.762,0,5-2.238,5-5v-10c0-2.761-2.238-5-5-5c-2.761,0-5,2.239-5,5V132.794z"></path>
        <path d="M34.552,192.794c0,2.762,2.239,5,5,5c2.762,0,5-2.238,5-5v-10c0-2.761-2.238-5-5-5c-2.761,0-5,2.239-5,5V192.794z"></path>
        <path d="M34.552,162.794c0,2.762,2.239,5,5,5c2.762,0,5-2.238,5-5v-10c0-2.761-2.238-5-5-5c-2.761,0-5,2.239-5,5V162.794z"></path>
        </g>
    </g>
    <g>
    </g>
    <g>
    </g>
    <g>
    </g>
    <g>
    </g>
    <g>
    </g>
    <g>
    </g>
    <g>
    </g>
    <g>
    </g>
    <g>
    </g>
    <g>
    </g>
    <g>
    </g>
    <g>
    </g>
    <g>
    </g>
    <g>
    </g>
    <g>
    </g>
</svg>