<svg version="1.1" id="Capa_1" xmlns="http://www.w3.org/2000/svg" xmlns:xlink="http://www.w3.org/1999/xlink" x="0px" y="0px" viewBox="0 0 512 512" width="50px" height="50px" style="enable-background:new 0 0 512 512;" xml:space="preserve">
            <g>
              <g>
                <path d="M510.329,332.836c-0.203-0.668-0.422-1.322-0.657-1.963c-5.489-15.085-19.959-25.221-36.008-25.221
               c-4.435,0-8.819,0.773-13.034,2.297c-34.814,12.605-121.378,41.922-173.185,41.922c-13.094,0-18.181-9.793-20.103-18.657
               c34.826,0.007,50.883,0.007,53.772,0.007c17.766,0,34.087-9.258,42.594-24.16c4.034-7.063,6.166-15.182,6.166-23.48
               c0-7.922-3.365-21.639-25.904-24.491c-0.08-0.01-0.16-0.019-0.24-0.027l-127.188-12.989c-25.95-3.216-51.731,5.251-70.746,23.251
               c-11.622,11.019-27.042,13.833-47.799,14.167V262.44c0-5.523-4.477-10-10-10H10c-5.523,0-10,4.477-10,10v182.659
               c0,5.523,4.477,10,10,10h77.999c5.523,0,10-4.477,10-10v-32h32.93c21.428,0,43.167,9.422,64.188,18.534
               c20.569,8.915,39.998,17.336,59.169,17.336c0.158,0,0.316-0.004,0.475-0.011c26.976-1.282,89.594-10.517,205.878-57.957
               c9.243-3.767,18.7-7.724,28.108-11.76c0-0.001,0-0.001,0.001-0.001C506.746,371.516,516.026,351.568,510.329,332.836z
                M77.999,402.373c0,0.336,0,0.581,0,0.728v32h-19V331.262c0-5.523-4.477-10-10-10c-5.523,0-10,4.477-10,10v103.839H20V272.441
               h57.999V402.373z M480.86,360.861c-3.833,1.645-7.673,3.271-11.504,4.881l-7.103-12.518c-2.727-4.804-8.83-6.488-13.633-3.762
               c-4.803,2.726-6.487,8.829-3.762,13.632l5.87,10.344c-111.633,45.331-171.021,54.273-196.672,55.531
               c-14.974-0.077-32.469-7.66-50.986-15.686c-21.827-9.461-46.566-20.183-72.142-20.183H98c0.001-20.968,0.006-68.796,0.008-89.597
               c20.808-0.268,43.729-2.768,61.544-19.66c14.677-13.893,34.588-20.42,54.621-17.91c0.076,0.01,0.152,0.018,0.228,0.026
               l85.262,8.707v16.101c0,5.523,4.478,10,10,10c5.522,0,10-4.477,10-10v-14.059l21.912,2.238c8.301,1.067,8.301,2.881,8.301,4.635
               c0,4.893-1.189,9.456-3.534,13.563c-4.957,8.683-14.622,14.077-25.226,14.077c-3.181,0-22.319,0-64.877-0.01
               c-0.001,0-0.002,0-0.003,0c-2.676,0-5.241,1.073-7.12,2.978c-1.88,1.906-2.917,4.486-2.879,7.163
               c0.415,29.474,16.589,48.518,41.208,48.518c54.974,0,144.187-30.153,179.991-43.115c2.024-0.732,4.119-1.104,6.227-1.104
               c7.671,0,14.589,4.846,17.223,12.084c0.114,0.313,0.216,0.619,0.309,0.925C493.92,347.619,489.477,357.163,480.86,360.861z"></path>
              </g>
            </g>
            <g>
              <g>
                <path d="M58.799,296.31c-0.121-0.64-0.32-1.27-0.57-1.87c-0.25-0.61-0.56-1.19-0.92-1.73c-0.36-0.55-0.78-1.06-1.24-1.52
               c-0.46-0.46-0.97-0.88-1.52-1.24c-0.54-0.36-1.12-0.67-1.72-0.92c-0.61-0.25-1.24-0.44-1.88-0.57c-1.28-0.26-2.61-0.26-3.9,0
               c-0.64,0.13-1.27,0.32-1.87,0.57c-0.61,0.25-1.19,0.56-1.73,0.92c-0.55,0.36-1.06,0.78-1.52,1.24c-0.46,0.46-0.88,0.97-1.24,1.52
               c-0.36,0.54-0.67,1.12-0.92,1.73c-0.25,0.6-0.44,1.23-0.57,1.87c-0.13,0.64-0.2,1.3-0.2,1.95s0.07,1.31,0.2,1.96
               c0.13,0.63,0.32,1.26,0.57,1.87c0.25,0.6,0.56,1.18,0.92,1.72c0.36,0.55,0.78,1.06,1.24,1.52s0.97,0.88,1.52,1.25
               c0.54,0.36,1.12,0.67,1.73,0.92c0.6,0.25,1.23,0.44,1.87,0.57s1.3,0.19,1.95,0.19c0.65,0,1.31-0.06,1.95-0.19s1.27-0.32,1.88-0.57
               c0.6-0.25,1.18-0.56,1.72-0.92c0.55-0.37,1.06-0.79,1.52-1.25c0.46-0.46,0.88-0.97,1.24-1.52c0.36-0.54,0.67-1.12,0.92-1.72
               c0.25-0.61,0.45-1.24,0.57-1.87c0.13-0.65,0.2-1.31,0.2-1.96S58.929,296.95,58.799,296.31z"></path>
              </g>
            </g>
            <g>
              <g>
                <path d="M407.109,56.901c-39.333,0-73.672,21.768-91.621,53.884h-43.288c-2.55,0-5.004,0.974-6.859,2.724l-8.345,7.866
               l-8.343-7.866c-1.855-1.749-4.309-2.724-6.86-2.724h-17.068c-2.55,0-5.004,0.974-6.859,2.724l-8.345,7.866l-8.343-7.866
               c-1.855-1.749-4.31-2.724-6.86-2.724h-17.069c-2.55,0-5.004,0.974-6.86,2.724l-8.344,7.866l-8.344-7.866
               c-1.856-1.749-4.31-2.724-6.86-2.724h-24.332c-3.134,0-6.086,1.469-7.977,3.969l-31,41c-2.698,3.568-2.698,8.494,0,12.063l31,41
               c1.89,2.5,4.843,3.969,7.977,3.969h192.977c17.949,32.118,52.288,53.885,91.621,53.885c57.833,0,104.884-47.051,104.884-104.885
               S464.943,56.901,407.109,56.901z M127.487,192.785l-23.439-31l23.439-31h15.386l12.315,11.609c3.852,3.632,9.867,3.632,13.72,0
               l12.314-11.609h9.128l12.314,11.609c3.851,3.63,9.866,3.631,13.719,0l12.315-11.609h9.127l12.314,11.609
               c3.853,3.631,9.867,3.631,13.719,0l12.315-11.609h30.702c-1.727,5.573-2.957,11.276-3.723,17.081
               c-0.041,0.307-0.082,0.613-0.121,0.92c-0.081,0.659-0.158,1.318-0.227,1.98c-0.035,0.339-0.066,0.679-0.099,1.019H176.36
               c-5.523,0-10,4.477-10,10s4.477,10,10,10h126.344c0.032,0.34,0.063,0.68,0.099,1.019c0.069,0.661,0.146,1.321,0.227,1.98
               c0.038,0.307,0.08,0.614,0.121,0.92c0.766,5.804,1.996,11.508,3.723,17.081H127.487z M407.109,246.67
               c-45.319,0-82.455-35.699-84.769-80.453c-0.004-0.076-0.006-0.153-0.009-0.229c-0.068-1.393-0.107-2.794-0.107-4.203
               c0-1.41,0.038-2.81,0.107-4.203c0.004-0.076,0.005-0.153,0.009-0.229c2.314-44.753,39.45-80.452,84.769-80.452
               c46.805,0,84.884,38.079,84.884,84.884S453.915,246.67,407.109,246.67z"></path>
              </g>
            </g>
            <g>
              <g>
                <path d="M428.135,112.468c-27.194,0-49.317,22.124-49.317,49.317s22.124,49.317,49.317,49.317s49.317-22.124,49.317-49.317
               S455.329,112.468,428.135,112.468z M428.135,191.102c-16.166,0-29.318-13.152-29.318-29.318s13.152-29.318,29.318-29.318
               s29.318,13.152,29.318,29.318S444.301,191.102,428.135,191.102z"></path>
              </g>
            </g>
            <g>
              <g>
                <path d="M153.167,159.832c-0.13-0.64-0.32-1.27-0.57-1.87c-0.25-0.6-0.56-1.19-0.92-1.73c-0.37-0.54-0.79-1.06-1.25-1.52
               c-0.46-0.46-0.97-0.88-1.52-1.24c-0.54-0.36-1.12-0.67-1.72-0.92c-0.61-0.25-1.24-0.44-1.87-0.57c-1.29-0.26-2.62-0.26-3.91,0
               c-0.64,0.13-1.27,0.32-1.87,0.57c-0.61,0.25-1.19,0.56-1.73,0.92c-0.55,0.36-1.06,0.78-1.52,1.24c-0.46,0.46-0.88,0.98-1.24,1.52
               c-0.36,0.54-0.67,1.13-0.92,1.73s-0.44,1.23-0.57,1.87c-0.13,0.64-0.2,1.3-0.2,1.95c0,0.66,0.07,1.31,0.2,1.96
               c0.13,0.64,0.32,1.26,0.57,1.87c0.25,0.6,0.56,1.18,0.92,1.72c0.36,0.55,0.78,1.06,1.24,1.52c0.46,0.47,0.97,0.88,1.52,1.25
               c0.539,0.36,1.12,0.67,1.73,0.92c0.6,0.25,1.23,0.44,1.87,0.57s1.3,0.19,1.95,0.19c0.65,0,1.31-0.06,1.96-0.19
               c0.63-0.13,1.26-0.32,1.87-0.57c0.6-0.25,1.18-0.56,1.72-0.92c0.55-0.37,1.06-0.78,1.52-1.25c0.46-0.46,0.88-0.97,1.25-1.52
               c0.36-0.54,0.67-1.12,0.92-1.72c0.25-0.61,0.44-1.23,0.57-1.87c0.13-0.65,0.19-1.3,0.19-1.96
               C153.357,161.132,153.297,160.472,153.167,159.832z"></path>
              </g>
            </g>
            <g>
            </g>
            <g>
            </g>
            <g>
            </g>
            <g>
            </g>
            <g>
            </g>
            <g>
            </g>
            <g>
            </g>
            <g>
            </g>
            <g>
            </g>
            <g>
            </g>
            <g>
            </g>
            <g>
            </g>
            <g>
            </g>
            <g>
            </g>
            <g>
            </g>
          </svg>