<svg height="50px" viewBox="0 0 46 60" width="50px" xmlns="http://www.w3.org/2000/svg">
    <g id="036---Office-Safe">
        <path id="Shape" d="m43 0h-40c-1.65685425 0-3 1.34314575-3 3v54c0 1.6568542 1.34314575 3 3 3h40c1.6568542 0 3-1.3431458 3-3v-54c0-1.65685425-1.3431458-3-3-3zm1 57c0 .5522847-.4477153 1-1 1h-40c-.55228475 0-1-.4477153-1-1v-54c0-.55228475.44771525-1 1-1h40c.5522847 0 1 .44771525 1 1z"></path>
        <path id="Shape" d="m41 4h-36c-.55228475 0-1 .44771525-1 1v50c0 .5522847.44771525 1 1 1h36c.5522847 0 1-.4477153 1-1v-50c0-.55228475-.4477153-1-1-1zm-1 50h-34v-48h34z"></path>
        <path id="Shape" d="m29 48c1.1186831.0031551 2.2037744-.3821053 3.07-1.09 1.91012-1.5226436 2.4404276-4.2025609 1.2541616-6.3379238s-3.7417977-3.1009925-6.0437556-2.283685-3.6763884 3.1782658-3.2504868 5.5835952c.4259017 2.4053294 2.5274425 4.1508119 4.9700808 4.1280136zm0-8c1.1057033-.0004129 2.1219995.6074172 2.6447165 1.5817615.5227169.9743444.4671061 2.1572319-.1447165 3.0782385l-1.7-2.26c-.2143594-.2858125-.5649147-.4355547-.9196152-.3928203-.3547006.0427344-.6596589.2714531-.8.6-.1403412.3285469-.0947442.7070078.1196152.9928203l1.69 2.25c-1.1320421.3716181-2.376708.0380924-3.1712515-.8497814-.7945436-.8878738-.9883535-2.1617931-.4938033-3.2457855.4945502-1.0839923 1.5837152-1.7725795 2.7750548-1.7544331z"></path>
        <path id="Shape" d="m10.75 46h3.25v3c0 1.6568542 1.3431458 3 3 3h18c1.6568542 0 3-1.3431458 3-3v-12c0-1.6568542-1.3431458-3-3-3h-18c-1.6568542 0-3 1.3431458-3 3v3h-3.25c-1.51650541.0054847-2.7445153 1.2334946-2.75 2.75v.5c.0054847 1.5165054 1.23349459 2.7445153 2.75 2.75zm5.25-9c0-.5522847.4477153-1 1-1h18c.5522847 0 1 .4477153 1 1v12c0 .5522847-.4477153 1-1 1h-18c-.5522847 0-1-.4477153-1-1v-3h3.25c1.5165054-.0054847 2.7445153-1.2334946 2.75-2.75v-.5c-.0054847-1.5165054-1.2334946-2.7445153-2.75-2.75h-3.25zm-6 5.75c.0053858-.4119621.3380379-.7446142.75-.75h8.5c.4119621.0053858.7446142.3380379.75.75v.5c-.0053858.4119621-.3380379.7446142-.75.75h-8.5c-.4119621-.0053858-.7446142-.3380379-.75-.75z"></path>
        <path id="Shape" d="m11 26h8c1.6568542 0 3-1.3431458 3-3v-12c0-1.65685425-1.3431458-3-3-3h-8c-1.65685425 0-3 1.34314575-3 3v12c0 1.6568542 1.34314575 3 3 3zm-1-15c0-.5522847.4477153-1 1-1h8c.5522847 0 1 .4477153 1 1v12c0 .5522847-.4477153 1-1 1h-8c-.5522847 0-1-.4477153-1-1z"></path>
        <circle id="Oval" cx="13" cy="13" r="1"></circle>
        <circle id="Oval" cx="17" cy="13" r="1"></circle>
        <circle id="Oval" cx="13" cy="17" r="1"></circle>
        <circle id="Oval" cx="17" cy="17" r="1"></circle>
        <circle id="Oval" cx="13" cy="21" r="1"></circle>
        <circle id="Oval" cx="17" cy="21" r="1"></circle>
    </g>
</svg>